<svg xmlns="http://www.w3.org/2000/svg" width="1024" height="1024" viewBox="0 0 1024 1024" version="1.1">
	<rect x="0" y="0" width="100%" height="100%" fill="#FFFFFF" />
	<path fill-opacity="0.404" d="M 247 74.500 C 245.625 75.286, 243.754 75.945, 242.842 75.965 C 240.131 76.022, 227.983 86.232, 227.332 89 C 227.008 90.375, 225.964 92.850, 225.011 94.500 C 221.056 101.350, 220.846 106.431, 221.179 187.045 C 221.531 272.053, 221.010 264.830, 227.336 272.500 L 229.810 275.500 378.407 275.760 L 527.003 276.019 533.419 282.310 C 540.298 289.055, 541.733 292.498, 540.743 299.880 C 539.976 305.600, 533.101 314.828, 527.858 317.175 C 523.639 319.064, 519.032 319.127, 351.513 319.594 L 179.500 320.074 173.500 322.667 C 166.502 325.691, 164.064 328.224, 159.985 336.708 C 156.386 344.195, 156.198 349.077, 159.256 355.651 C 162.170 361.912, 163.699 363.903, 168.140 367.218 C 176.006 373.088, 174.257 372.963, 250 373.058 C 288.225 373.107, 321.878 373.484, 324.784 373.898 C 329.159 374.521, 330.821 375.389, 334.444 378.945 C 339.611 384.016, 342.414 390.531, 341.696 395.797 C 340.879 401.778, 338.710 406.970, 335.500 410.626 C 329.929 416.974, 329.614 416.997, 248.701 417.027 C 166.707 417.058, 149.484 417.711, 142.859 421.037 C 138.021 423.465, 134.436 426.941, 130.952 432.578 C 129.044 435.665, 128.644 437.670, 128.684 443.942 C 128.742 452.948, 130.775 457.757, 136.839 463.236 C 144.193 469.879, 139.899 469.471, 206 469.813 C 274.557 470.169, 268.548 469.385, 276.159 478.960 C 280.367 484.254, 280.499 484.636, 280.460 491.460 C 280.423 497.766, 280.073 499.001, 277.101 503.306 C 275.276 505.949, 271.919 509.324, 269.641 510.806 L 265.500 513.500 197.500 514.007 L 129.500 514.514 125.199 516.887 C 118.238 520.727, 112.339 527.298, 110.961 532.747 C 108.324 543.177, 110.383 552.225, 116.869 558.711 C 125.380 567.222, 109.867 566.439, 281.086 567 L 433.672 567.500 437.912 570.439 C 443.855 574.557, 446 579.242, 446 588.101 C 446 596.978, 443.422 602.742, 437.669 606.730 L 433.672 609.500 334.086 610 C 227.436 610.535, 231.991 610.306, 226.163 615.441 C 220.994 619.994, 220.997 619.954, 221.034 681.372 C 221.070 742.369, 221.728 756.545, 224.812 762.699 C 225.859 764.789, 227 767.682, 227.346 769.127 C 228.124 772.368, 240.307 782.572, 244.516 783.508 C 246.157 783.872, 249.201 784.809, 251.279 785.589 C 256.944 787.715, 782.221 787.585, 789 785.456 C 791.475 784.678, 795.300 783.592, 797.500 783.041 C 802.466 781.798, 811.991 774.134, 814.002 769.764 C 814.828 767.969, 815.946 765.825, 816.488 765 C 817.029 764.175, 818.490 761.025, 819.735 758 L 821.999 752.500 821.984 633.663 L 821.968 514.826 833.984 502.771 C 840.593 496.140, 846 490.381, 846 489.973 C 846 489.564, 847.055 488.539, 848.344 487.694 C 849.634 486.849, 852.221 484.503, 854.094 482.481 C 855.967 480.458, 859.956 476.485, 862.957 473.652 C 865.958 470.818, 869.558 467.208, 870.957 465.629 C 872.356 464.050, 874.095 462.250, 874.822 461.629 C 875.549 461.008, 876.899 459.717, 877.822 458.759 C 878.745 457.802, 884.450 452.080, 890.500 446.044 C 904.069 432.508, 900.552 436.097, 923.265 412.603 C 933.844 401.660, 951.635 383.435, 962.801 372.103 C 993.378 341.071, 1007.155 326.775, 1010.708 322.395 C 1014.844 317.295, 1019.538 308.461, 1020.482 304 C 1020.889 302.075, 1021.881 299.752, 1022.687 298.838 C 1024.268 297.043, 1023.978 289.717, 1022.192 286.334 C 1021.660 285.325, 1020.712 282.011, 1020.086 278.968 C 1018.506 271.282, 1014.803 264.338, 1009.304 258.750 C 1006.733 256.137, 1004.298 254, 1003.892 254 C 1003.485 254, 1001.171 252.487, 998.747 250.637 C 995.793 248.382, 992.390 246.900, 988.421 246.138 C 985.164 245.514, 980.025 244.509, 977 243.905 C 972.285 242.964, 970.091 243.127, 961.622 245.042 C 947.766 248.176, 943.271 251.499, 918.323 277.053 C 869.878 326.672, 824.674 371.074, 823.647 370.047 C 822.970 369.370, 822.583 354.053, 822.526 325.665 C 822.429 277.879, 822.888 281.434, 815.851 273.923 C 809.886 267.555, 811.636 267.687, 725 267.064 L 646.500 266.500 642.717 263.822 C 640.636 262.350, 638.611 261, 638.217 260.822 C 637.454 260.479, 630.989 252.517, 629.429 250 C 628.888 249.127, 628.291 215.068, 628 168.500 L 627.500 88.500 625.168 84.750 C 623.886 82.687, 622.454 81, 621.986 81 C 621.518 81, 620.867 80.156, 620.539 79.124 C 620.173 77.971, 617.698 76.429, 614.119 75.124 L 608.295 73 428.897 73.035 C 275.266 73.066, 249.141 73.276, 247 74.500 M 670.080 85.404 C 669.244 86.411, 668.914 104.631, 668.866 152.492 L 668.799 218.198 672.121 221.625 C 673.948 223.510, 677.065 225.538, 679.047 226.132 C 681.517 226.872, 702.207 227.100, 744.790 226.856 C 816.074 226.448, 812.572 226.911, 806.984 218.631 C 805.252 216.066, 802.523 213.287, 800.918 212.457 C 799.313 211.628, 798 210.490, 798 209.929 C 798 209.368, 796.949 207.917, 795.665 206.705 C 794.380 205.492, 766.277 177.653, 733.213 144.839 C 700.150 112.026, 672.677 84.918, 672.162 84.600 C 671.648 84.282, 670.710 84.644, 670.080 85.404 M 75.912 322.011 C 68.381 323.286, 60.461 327.576, 57.867 331.786 C 52.521 340.462, 51.539 345.086, 53.582 351.964 C 55.337 357.874, 58.945 363.572, 62.922 366.715 C 66.631 369.646, 72.149 370.784, 86.557 371.590 C 100.236 372.356, 109.174 371.023, 111.836 367.820 C 112.751 366.719, 114.490 365.428, 115.700 364.952 C 116.993 364.444, 119.028 361.702, 120.638 358.301 C 123.942 351.316, 124.429 341.879, 121.688 337.964 C 120.759 336.639, 120 334.734, 120 333.730 C 120 331.101, 115.411 327.165, 108.500 323.866 C 102.953 321.218, 101.670 321.010, 91.500 321.118 C 85.450 321.183, 78.436 321.585, 75.912 322.011 M 46 420.601 C 28.586 423.614, 21.818 433.665, 25.456 451.112 C 27.067 458.837, 28.031 460.120, 36.355 465.614 C 40.149 468.117, 40.512 468.157, 59.095 468.122 C 77.107 468.087, 78.136 467.979, 81.348 465.793 C 83.200 464.532, 85.838 462.150, 87.210 460.500 C 89.777 457.414, 94 446.534, 94 443.007 C 94 437.256, 86.309 424, 82.973 424 C 82.132 424, 80.332 423.219, 78.973 422.264 C 76.946 420.841, 73.975 420.495, 62.500 420.348 C 54.800 420.249, 47.375 420.363, 46 420.601 M 27 514.651 C 17.597 516.417, 11.005 520.729, 6.767 527.885 C 4.425 531.839, 4.032 533.614, 4.017 540.285 C 4.002 547.013, 4.384 548.743, 6.825 553.017 C 9.559 557.805, 15.649 563.156, 20.435 564.975 C 24.456 566.504, 49.467 567.253, 55.396 566.022 C 62.145 564.621, 69.171 560.059, 72.062 555.203 C 80.254 541.441, 75.606 524.485, 61.692 517.366 C 56.938 514.934, 55.360 514.687, 43 514.446 C 35.575 514.300, 28.375 514.393, 27 514.651 M 185 884.343 C 171.967 890.645, 168.234 896.134, 169.702 906.840 C 170.178 910.317, 171.212 912.179, 174.367 915.240 C 179.933 920.642, 184.320 922.661, 192.364 923.522 C 197.947 924.120, 199.853 924.810, 202.611 927.232 C 206.688 930.812, 206.908 933.656, 203.344 936.718 C 201.074 938.669, 199.588 938.995, 193.094 938.966 C 187.691 938.942, 184.346 938.375, 181.500 937 C 173.990 933.372, 169 934.896, 169 940.816 C 169 942.965, 174.094 947.292, 178 948.460 C 179.375 948.872, 181.609 949.910, 182.965 950.768 C 184.704 951.869, 187.944 952.326, 193.965 952.322 C 201.262 952.316, 203.225 951.932, 207.500 949.669 C 216.755 944.769, 219.021 942.195, 219.678 935.835 C 220.513 927.738, 219.458 923.774, 215.186 918.960 C 211.857 915.208, 210.757 914.632, 205.580 913.930 C 196.288 912.669, 187.920 909.807, 186.302 907.338 C 183.868 903.623, 185 899.768, 189.181 897.529 C 192.559 895.720, 193.340 895.666, 198.681 896.870 C 213.299 900.167, 214.082 900.236, 216.101 898.409 C 219.278 895.533, 218.454 892.621, 213.336 888.634 C 210.771 886.635, 207.932 885, 207.027 885 C 206.122 885, 204.509 884.339, 203.441 883.532 C 200.454 881.272, 190.438 881.713, 185 884.343 M 247.473 883.365 C 246.388 884.116, 244.375 885.078, 243 885.503 C 241.625 885.928, 239.418 887.120, 238.095 888.153 C 228.995 895.261, 227.738 907.703, 235.298 915.844 C 238.397 919.182, 246.471 922.546, 253.309 923.349 C 256.504 923.724, 260.183 924.729, 261.484 925.582 C 264.668 927.667, 266.327 932.509, 264.833 935.349 C 263.112 938.619, 262.091 938.968, 254.210 938.985 C 248.805 938.996, 245.879 938.469, 242.890 936.944 C 237.343 934.114, 232.331 934.643, 229.599 938.346 L 227.500 941.192 231 944.129 C 232.925 945.745, 236.300 947.580, 238.500 948.206 C 240.700 948.832, 243.263 949.990, 244.195 950.778 C 245.362 951.764, 248.477 952.219, 254.195 952.239 C 261.530 952.264, 263.137 951.922, 267.948 949.312 C 270.945 947.686, 275.205 944.223, 277.415 941.615 C 281.060 937.315, 281.427 936.374, 281.356 931.492 C 281.286 926.677, 280.820 925.550, 276.937 920.805 C 274.550 917.887, 272.510 915.360, 272.404 915.189 C 272.298 915.018, 269.576 914.504, 266.356 914.046 C 252.571 912.087, 243.097 906.735, 244.378 901.630 C 245.545 896.979, 254.138 895.858, 267.164 898.657 C 274.365 900.204, 275.042 900.203, 277.436 898.634 C 280.509 896.620, 280.736 893.644, 278 891.250 C 276.900 890.288, 275.144 888.757, 274.099 887.849 C 273.053 886.941, 271.141 885.867, 269.849 885.464 C 268.557 885.061, 266.612 884.116, 265.527 883.365 C 264.316 882.527, 260.832 882, 256.500 882 C 252.168 882, 248.684 882.527, 247.473 883.365 M 376.482 886.339 C 367.982 891.378, 365.100 894.109, 362.064 900 C 358.898 906.141, 355.993 914.767, 356.033 917.907 C 356.074 921.164, 359.066 929.926, 361.305 933.343 C 362.237 934.766, 363 936.218, 363 936.570 C 363 939.076, 372.500 947.100, 377.147 948.518 C 378.441 948.913, 380.323 949.961, 381.330 950.846 C 382.738 952.083, 385.275 952.443, 392.330 952.405 C 400.982 952.359, 401.914 952.139, 408.823 948.516 C 413.045 946.302, 417.263 943.210, 418.786 941.214 C 421.256 937.976, 421.429 937.055, 421.463 926.966 C 421.483 921.034, 421.126 915.802, 420.670 915.340 C 419.270 913.925, 395.117 913.658, 393.452 915.040 C 391.793 916.417, 391.484 922.563, 393.026 923.516 C 393.590 923.865, 396.501 924.403, 399.494 924.712 C 403.082 925.082, 405.538 925.937, 406.699 927.220 C 408.385 929.083, 408.370 929.323, 406.352 932.833 C 403.548 937.709, 400.778 938.976, 393 938.940 C 385.323 938.904, 382.668 937.851, 376.846 932.528 L 372.500 928.555 372.500 918.528 L 372.500 908.500 376.869 903.788 C 379.272 901.197, 382.823 898.553, 384.760 897.914 C 389.752 896.267, 400.870 897.275, 406.208 899.859 C 408.641 901.036, 411.281 902, 412.076 902 C 413.690 902, 419 897.417, 419 896.025 C 419 893.523, 416.864 890.092, 414.923 889.476 C 413.718 889.093, 410.129 887.255, 406.948 885.390 C 401.504 882.200, 400.644 882.005, 392.332 882.089 C 383.832 882.175, 383.236 882.335, 376.482 886.339 M 454.500 883.832 C 444.529 889.541, 441.623 891.622, 438.456 895.322 C 436.515 897.590, 434.695 900.583, 434.412 901.973 C 434.129 903.363, 433.020 906.759, 431.948 909.519 C 430.877 912.280, 430.002 915.880, 430.004 917.519 C 430.009 920.510, 433.468 931.323, 435.917 936 C 438.107 940.182, 444.540 945.710, 451.192 949.125 C 456.873 952.042, 458.345 952.361, 466 952.329 C 474.075 952.296, 474.925 952.073, 482.984 947.873 C 489.854 944.293, 491.637 942.886, 492.352 940.476 C 492.838 938.839, 493.632 936.719, 494.118 935.764 C 494.603 934.809, 495 930.228, 495 925.585 C 495 914.061, 494.917 913.996, 480.179 914.015 C 473.755 914.024, 467.998 914.361, 467.385 914.765 C 465.239 916.179, 464.775 920.007, 466.440 922.549 C 467.777 924.589, 468.854 925, 472.868 925 C 479.381 925, 481.869 927.488, 479.962 932.093 C 478.009 936.806, 473.656 938.992, 466.210 938.996 C 458.894 939.001, 452.555 936.312, 450.799 932.459 C 450.183 931.107, 449.337 930, 448.920 930 C 448.502 930, 447.416 927.758, 446.506 925.018 C 444.366 918.574, 445.272 910.018, 448.503 906.179 C 449.743 904.706, 450.926 902.625, 451.131 901.556 C 451.399 900.165, 453.284 899.043, 457.753 897.613 C 463.902 895.646, 464.115 895.644, 471.250 897.466 C 475.238 898.484, 479.388 899.921, 480.473 900.659 C 483.311 902.589, 486.094 902.260, 489.331 899.612 C 494.813 895.127, 492.012 890.557, 481 886.017 C 479.625 885.450, 477.306 884.314, 475.846 883.493 C 472.036 881.350, 458.459 881.566, 454.500 883.832 M 560.500 883.576 C 546.305 890.976, 543.624 893.261, 539.445 901.522 C 536.707 906.933, 536.501 908.121, 536.520 918.421 C 536.538 928.475, 536.786 929.963, 539.200 934.500 C 542.691 941.063, 546.018 944.117, 554.500 948.545 C 560.823 951.846, 562.274 952.203, 569.500 952.237 C 576.013 952.268, 578.429 951.819, 582.500 949.825 C 592.116 945.112, 594.844 942.876, 599.662 935.760 L 604.500 928.615 604.500 917.391 C 604.500 907.320, 604.269 905.855, 602.250 903.124 C 601.013 901.450, 599.987 899.725, 599.972 899.290 C 599.957 898.856, 598.652 896.792, 597.072 894.705 C 595.169 892.192, 591.324 889.407, 585.684 886.455 C 578.016 882.443, 576.491 882.001, 570.335 882.006 C 566.092 882.010, 562.362 882.605, 560.500 883.576 M 787.500 884.358 C 774.163 891.713, 769.168 897.192, 766.672 907.206 C 765.752 910.894, 765 915.305, 765 917.008 C 765 922.159, 768.069 933.978, 769.878 935.795 C 770.812 936.733, 772.790 939.149, 774.274 941.166 C 776.131 943.688, 779.394 945.989, 784.736 948.545 C 791.246 951.658, 793.631 952.278, 799.500 952.379 C 805.729 952.487, 807.351 952.079, 814.223 948.677 C 823.316 944.175, 827.442 939.950, 826.514 936.092 C 825.062 930.057, 818.830 929.277, 812.865 934.384 C 805.295 940.863, 794.123 940.546, 786.581 933.638 C 782.256 929.676, 781 925.855, 781 916.658 C 781 905.242, 784.866 899.761, 794.318 897.779 C 800.770 896.426, 811.874 898.068, 813.300 900.587 C 813.740 901.364, 815.442 902.694, 817.083 903.543 C 819.970 905.036, 820.165 904.989, 823.034 902.120 C 827.243 897.911, 826.916 894.946, 821.750 890.489 C 814.085 883.876, 809.161 881.990, 799.783 882.076 C 793.215 882.136, 790.672 882.608, 787.500 884.358 M 46.691 884.322 C 44.596 885.010, 42.465 886.232, 41.956 887.037 C 41.444 887.846, 41.024 901.535, 41.015 917.661 L 41 946.822 44.077 949.411 C 45.769 950.835, 47.984 952, 49 952 C 50.016 952, 52.231 950.835, 53.923 949.411 C 56.836 946.960, 57 946.437, 57 939.602 C 57 935.332, 57.511 931.740, 58.250 930.810 C 59.176 929.645, 62.218 929.072, 69.975 928.599 C 82.038 927.864, 85.415 926.199, 92.171 917.660 C 95.678 913.227, 95.999 912.303, 95.985 906.660 C 95.972 901.365, 95.515 899.840, 92.735 895.799 C 88.678 889.903, 83.204 886.177, 76.822 884.966 C 68.161 883.324, 50.855 882.953, 46.691 884.322 M 122.646 885.452 C 121.191 886.801, 120 888.566, 120 889.375 C 120 890.184, 118.233 894.143, 116.073 898.173 C 113.912 902.203, 111.837 907.300, 111.461 909.500 C 111.085 911.700, 110.264 913.950, 109.637 914.500 C 108.272 915.697, 104.548 924.834, 103.032 930.708 C 102.434 933.022, 101.542 935.165, 101.049 935.470 C 100.556 935.774, 99.402 938.284, 98.484 941.047 C 96.978 945.583, 96.965 946.297, 98.351 948.412 C 102.136 954.189, 111.200 951.405, 112.367 944.106 C 112.740 941.776, 113.675 939.955, 114.701 939.561 C 117.278 938.572, 138.334 937.616, 141.276 938.354 C 143.060 938.802, 144.194 940.058, 144.988 942.464 C 146.713 947.690, 151.193 952, 154.901 952 C 158.829 952, 162 948.896, 162 945.053 C 162 942.202, 158.347 934.210, 155.598 931.047 C 154.858 930.196, 153.959 927.857, 153.600 925.848 C 153.021 922.613, 149.174 914.228, 147.017 911.500 C 146.582 910.950, 145.901 908.475, 145.504 906 C 145.107 903.525, 144.210 900.825, 143.510 900 C 142.810 899.175, 140.818 895.528, 139.084 891.895 C 135.788 884.991, 133.329 883, 128.099 883 C 126.506 883, 124.148 884.060, 122.646 885.452 M 313.880 885.255 C 310.461 888.185, 306.369 895.857, 305.508 900.950 C 305.133 903.172, 304.391 905.258, 303.860 905.587 C 302.583 906.376, 298.402 915.893, 297.472 920.126 C 297.068 921.965, 296.161 924.377, 295.456 925.485 C 293.164 929.087, 289.242 939.397, 288.537 943.675 C 287.967 947.135, 288.205 948.205, 289.925 949.925 C 291.066 951.066, 292.877 952, 293.949 952 C 296.202 952, 301.795 946.463, 302.580 943.455 C 303.565 939.684, 306.801 938.724, 319.774 938.357 L 332.104 938.009 334.656 940.755 C 336.060 942.265, 337.949 945.060, 338.854 946.966 C 342.179 953.968, 352.008 953.041, 351.993 945.727 C 351.990 943.952, 351.093 941.150, 350 939.500 C 348.907 937.850, 348.010 935.869, 348.007 935.097 C 347.998 933.249, 342.354 921.337, 341.128 920.579 C 340.603 920.255, 339.877 918.079, 339.514 915.745 C 339.151 913.410, 337.087 908.017, 334.927 903.760 C 332.767 899.503, 331 894.876, 331 893.478 C 331 892.081, 330.342 890.685, 329.538 890.376 C 328.734 890.068, 327.802 888.952, 327.467 887.897 C 326.751 885.639, 322.071 882.998, 318.800 883.005 C 317.535 883.008, 315.321 884.020, 313.880 885.255 M 651.021 884.085 C 645.165 886.495, 645.041 886.919, 645.085 904.385 C 645.107 913.248, 645.383 926.462, 645.698 933.750 C 646.218 945.791, 646.481 947.227, 648.587 949.500 C 651.653 952.808, 655.442 952.716, 658.889 949.250 C 661.474 946.650, 661.614 946.037, 661.446 938 C 661.188 925.604, 661.466 925.321, 674.367 924.843 C 685.839 924.418, 689 923.004, 689 918.294 C 689 914.428, 683.648 912.768, 673.672 913.542 C 663.255 914.350, 661.893 913.495, 661.348 905.809 C 660.776 897.748, 661.364 897.462, 677.707 897.855 C 693.174 898.227, 695.012 897.508, 694.985 891.095 C 694.965 886.357, 693.981 885.007, 689.896 884.107 C 684.640 882.948, 653.825 882.931, 651.021 884.085 M 721.763 884.565 C 720.257 885.382, 718.724 887.277, 718.356 888.775 C 717.987 890.274, 715.960 895.100, 713.852 899.500 C 711.743 903.900, 710.013 908.489, 710.009 909.697 C 710 911.874, 706.831 918.547, 703.650 923.089 C 702.743 924.385, 702 926.539, 702 927.876 C 702 929.998, 698.841 938.033, 695.961 943.236 C 695.432 944.191, 695 945.621, 695 946.414 C 695 948.489, 699.847 952, 702.712 952 C 705.939 952, 711 946.878, 711 943.612 C 711 939.596, 713.674 938.914, 728.239 939.221 L 741.500 939.500 743.176 942.857 C 745.942 948.397, 748.978 951, 752.674 951 C 755.794 951, 760 948.213, 760 946.147 C 760 944.208, 754.922 931.475, 754.030 931.177 C 753.498 931, 752.770 929.200, 752.411 927.177 C 752.052 925.155, 750.071 919.900, 748.008 915.500 C 745.946 911.100, 743.225 904.800, 741.961 901.500 C 740.698 898.200, 738.840 894.427, 737.832 893.115 C 736.825 891.803, 736 889.922, 736 888.933 C 736 886.499, 730.848 882.991, 727.346 883.040 C 725.781 883.062, 723.268 883.748, 721.763 884.565 M 842.250 884.989 L 839 886.971 839 916.896 L 839 946.822 842.077 949.411 C 845.899 952.628, 846.491 952.625, 851.196 949.364 L 855 946.728 855 918.298 C 855 900.712, 854.607 889.135, 853.970 887.945 C 853.011 886.153, 848.109 882.995, 846.300 883.004 C 845.860 883.006, 844.038 883.899, 842.250 884.989 M 873.223 884.557 C 871.008 886.108, 871 886.221, 871 916.866 C 871 939.904, 871.314 948.039, 872.250 949.299 C 873.309 950.723, 876.279 951.075, 891.668 951.598 L 909.835 952.217 913.450 949.358 C 916.359 947.058, 917.009 945.919, 916.782 943.523 C 916.362 939.085, 913.222 937.960, 901.500 938.046 C 887.886 938.147, 888.339 938.196, 886.571 936.429 C 885.232 935.089, 884.998 931.357, 884.985 911.179 C 884.976 898.155, 884.639 887.005, 884.235 886.400 C 883.185 884.828, 879.450 883, 877.288 883 C 876.274 883, 874.445 883.701, 873.223 884.557 M 511 885.281 L 508.500 886.558 508.235 916.313 L 507.970 946.068 510.631 948.534 C 514.591 952.204, 519.470 951.926, 521.545 947.913 C 522.928 945.239, 523.048 942.054, 522.441 924.163 C 521.947 909.575, 522.090 901.828, 522.928 897.812 C 523.933 893, 523.877 891.663, 522.565 889.126 C 521.712 887.476, 520.674 885.926, 520.257 885.681 C 518.013 884.360, 513.209 884.152, 511 885.281 M 927.635 886.073 L 925 888.145 925 917.150 L 925 946.154 927.923 949.077 L 930.846 952 950.989 952 C 962.392 952, 971.935 951.570, 972.984 951.008 C 975.348 949.743, 976.378 945.124, 975.066 941.674 L 974.050 939 959.959 939 C 952.158 939, 945.005 938.538, 943.934 937.965 C 942.328 937.105, 942 935.833, 942 930.465 C 942 925.973, 942.382 923.992, 943.250 923.975 C 968.854 923.458, 967.951 923.684, 967.985 917.773 C 968.011 913.158, 964.141 911.500, 953.342 911.500 C 948.260 911.500, 943.637 911.035, 943.068 910.466 C 941.855 909.256, 941.361 900.843, 942.403 899.157 C 942.893 898.365, 947.810 898, 958.002 898 C 972.250 898, 972.953 897.905, 974.443 895.777 C 976.449 892.914, 976.442 887.584, 974.429 885.571 C 973.098 884.241, 969.588 884, 951.563 884 C 931.535 884, 930.113 884.123, 927.635 886.073 M 59.226 898.554 C 57.329 899.883, 57 901.036, 57 906.357 C 57 909.879, 57.523 913.123, 58.200 913.800 C 58.942 914.542, 62.588 915, 67.745 915 C 75.273 915, 76.332 914.759, 78.545 912.545 C 81.348 909.743, 81.597 907.365, 79.591 902.564 C 77.976 898.699, 76.926 898.243, 67.976 897.521 C 63.029 897.122, 60.915 897.371, 59.226 898.554 M 565.500 897.491 C 564.950 897.675, 563.285 898.092, 561.800 898.419 C 560.152 898.782, 557.325 901.191, 554.550 904.598 C 550.014 910.166, 550 910.208, 550 918.002 C 550 925.644, 550.093 925.938, 554.095 931.001 C 558.813 936.969, 562.855 939, 570.018 939 C 576.052 939, 579.240 937.494, 584.132 932.332 C 589.360 926.815, 590 925.051, 590 916.150 L 590 908.168 585.668 903.517 C 582.683 900.312, 580.117 898.583, 577.418 897.956 C 573.582 897.067, 567.486 896.829, 565.500 897.491 M 317.192 906.295 C 315.812 907.764, 315 909.904, 315 912.072 C 315 913.966, 313.938 917.537, 312.640 920.008 C 311.342 922.479, 310.479 925.063, 310.723 925.750 C 311.260 927.262, 327.555 927.529, 328.475 926.041 C 328.801 925.513, 328.635 924.276, 328.106 923.291 C 325.519 918.478, 322.988 912.109, 322.255 908.574 C 321.262 903.785, 320.059 903.244, 317.192 906.295 M 126.238 908.162 C 125.557 908.843, 124.985 909.872, 124.966 910.450 C 124.947 911.028, 124.063 913.300, 123 915.500 C 120.698 920.266, 120.470 924.315, 122.413 925.928 C 123.262 926.633, 126.351 926.980, 130.163 926.800 L 136.500 926.500 136.440 921.788 C 136.401 918.776, 135.749 916.380, 134.632 915.146 C 133.671 914.084, 132.543 911.929, 132.125 910.357 C 131.295 907.237, 128.286 906.114, 126.238 908.162 M 725.184 910.750 C 724.240 912.813, 722.702 915.635, 721.768 917.021 C 720.834 918.408, 719.941 921.108, 719.785 923.021 L 719.500 926.500 727 926.500 L 734.500 926.500 734.828 923.052 C 735.013 921.105, 734.286 917.622, 733.157 915.052 C 732.057 912.548, 730.911 909.712, 730.610 908.750 C 729.689 905.804, 726.995 906.797, 725.184 910.750" stroke="none" fill="#0B1F3A" fill-rule="evenodd"/>
	<path fill-opacity="0.776" d="M 246.788 76.875 C 240.047 78.793, 229.264 87.080, 228.409 91 C 228.109 92.375, 226.994 95.349, 225.932 97.610 C 224.072 101.565, 224 104.766, 224 183.216 L 224 264.712 227.538 269.346 L 231.077 273.981 380.028 274.240 L 528.980 274.500 535.216 280.736 C 541.390 286.910, 541.458 287.039, 542.042 293.736 C 542.692 301.199, 541.950 306.172, 539.865 308.317 C 539.114 309.090, 537.222 311.348, 535.660 313.335 C 534.098 315.322, 531.360 317.850, 529.577 318.953 C 526.368 320.936, 524.476 320.960, 353.417 321.229 L 180.500 321.500 173.500 325.008 C 166.739 328.396, 166.373 328.772, 162.780 336.008 C 158.472 344.684, 158.190 347.902, 161.143 354.623 C 165.315 364.116, 171.224 368.944, 179.428 369.565 C 182.218 369.776, 216.122 370.168, 254.771 370.437 C 321.634 370.901, 325.248 371.019, 329.271 372.866 C 334.227 375.141, 339.299 379.797, 341.725 384.302 C 344.379 389.229, 344.065 400.293, 341.110 406 C 338.281 411.464, 334.181 415.998, 332.063 416.006 C 331.203 416.010, 329.238 416.671, 327.695 417.476 C 325.323 418.713, 311.944 419.024, 241.195 419.491 C 195.163 419.794, 155.188 420.284, 152.362 420.579 C 149.536 420.874, 146.386 421.751, 145.362 422.526 C 144.338 423.302, 142.745 423.951, 141.821 423.968 C 138.656 424.028, 134.090 430.291, 131.838 437.661 C 130.271 442.789, 130.279 443.538, 131.991 450.723 C 133.885 458.674, 134.087 458.944, 142.680 465.036 L 146.860 468 206.980 468 C 274.018 468, 269.970 467.580, 276.172 475.186 C 281.456 481.667, 282 483.197, 282 491.581 C 282 498.730, 281.743 499.679, 278.484 504.590 C 276.551 507.503, 273.513 510.924, 271.734 512.193 L 268.500 514.500 201.067 515.290 C 147.190 515.921, 133.017 516.358, 130.567 517.461 C 128.880 518.220, 126.375 519.158, 125 519.545 C 123.625 519.932, 121.695 521.092, 120.711 522.124 C 119.727 523.156, 118.490 524, 117.961 524 C 117.432 524, 117 524.533, 117 525.186 C 117 525.838, 115.988 527.449, 114.750 528.766 C 112.754 530.890, 112.500 532.198, 112.500 540.330 C 112.500 548.673, 112.746 549.861, 115.229 553.500 C 116.730 555.700, 119.655 558.850, 121.729 560.500 L 125.500 563.500 278.500 564 L 431.500 564.500 436.699 567.381 C 443.825 571.330, 445.878 573.806, 447.648 580.583 C 449.489 587.633, 448.834 593.524, 445.418 600.652 C 442.817 606.078, 440.520 608.069, 433.680 610.819 C 429.893 612.342, 420.158 612.547, 330.173 613 L 230.846 613.500 227.396 617.264 L 223.947 621.029 224.223 689.361 C 224.425 739.092, 224.814 758.076, 225.652 759.097 C 226.286 759.869, 227.305 762.372, 227.917 764.660 C 229.069 768.971, 235.042 776.030, 240.395 779.409 C 247.978 784.195, 239.083 784.048, 518.500 783.991 C 801.008 783.932, 793.295 784.074, 801.500 778.807 C 806.798 775.406, 813 769.069, 813 767.056 C 813 766.170, 813.781 764.332, 814.736 762.973 C 815.690 761.613, 817.250 758.250, 818.203 755.500 C 819.805 750.874, 819.937 741.960, 819.967 636.250 C 819.992 550.593, 819.711 522, 818.846 522 C 817.589 522, 806.601 532.665, 772.999 566.500 C 760.982 578.600, 750.163 589.400, 748.956 590.500 C 747.750 591.600, 746.093 593.240, 745.275 594.144 C 744.458 595.049, 742.450 597.150, 740.813 598.813 C 739.177 600.477, 737.312 602.408, 736.669 603.104 C 727.203 613.351, 717.826 621.512, 710.794 625.624 L 702.500 630.473 685 630.445 C 667.844 630.418, 665.926 630.130, 660.500 626.764 C 651.112 620.941, 648.157 618.831, 645.922 616.356 C 641.256 611.186, 530.935 502.543, 529.585 501.788 C 526.840 500.252, 517.266 487.335, 516.029 483.500 C 515.320 481.300, 514.363 479.022, 513.904 478.438 C 513.444 477.854, 512.335 473.739, 511.439 469.293 C 509.948 461.893, 509.943 460.567, 511.385 453.594 C 512.252 449.404, 513.869 443.982, 514.980 441.543 C 516.091 439.105, 517 436.465, 517 435.676 C 517 434.114, 528.609 422.061, 534.091 417.932 C 535.966 416.519, 541.025 414.334, 545.332 413.076 C 552.006 411.128, 554.817 410.853, 564.332 411.218 C 575.665 411.652, 587.222 414.493, 589.500 417.404 C 590.050 418.107, 591.754 419.337, 593.287 420.138 C 594.820 420.939, 609.670 435.103, 626.287 451.614 C 663.057 488.148, 671.477 496.004, 676.882 498.822 C 682.425 501.711, 689.202 501.685, 694.803 498.753 C 697.633 497.271, 717.885 477.494, 753.941 441 C 815.813 378.376, 813.764 380.486, 817.638 375.408 L 820.500 371.656 820.500 328.078 C 820.500 279.761, 820.731 281.577, 813.705 274.551 C 811.056 271.903, 809.739 271.442, 803.091 270.841 C 798.916 270.463, 763.272 270.120, 723.881 270.079 C 646.628 269.998, 648.707 270.134, 640.599 264.632 C 636.877 262.106, 635.194 260.525, 630.148 254.816 C 626.140 250.280, 625.714 241.708, 625.959 170.500 C 626.197 101.052, 625.626 88.570, 622.021 84.500 C 621.047 83.400, 619.748 81.525, 619.134 80.333 C 616.714 75.633, 619.496 75.705, 430.500 75.471 C 268.783 75.270, 251.977 75.399, 246.788 76.875 M 670.672 87.750 C 670.426 88.162, 670.287 117.155, 670.363 152.177 C 670.498 214.897, 670.531 215.896, 672.571 218.677 C 677.303 225.126, 676.030 224.997, 734.596 224.998 C 763.799 224.999, 791.843 224.705, 796.916 224.345 C 806.063 223.696, 806.134 223.670, 805.529 221.258 C 805.192 219.918, 796.967 211.033, 787.209 201.469 C 774.366 188.881, 693.772 108.539, 680.500 95.094 C 678.029 92.591, 671.794 87, 671.473 87 C 671.278 87, 670.917 87.338, 670.672 87.750 M 31.500 517.059 C 15.512 519.070, 11.643 521.636, 5.960 534 C 5.310 535.413, 5.020 538.891, 5.292 542 C 5.872 548.627, 10.637 556.528, 16.592 560.738 L 20.500 563.500 40 563.500 L 59.500 563.500 64 560.183 C 73.458 553.211, 76.737 540.210, 71.653 529.841 C 66.071 518.454, 53.141 514.338, 31.500 517.059 M 390 883.675 C 385.979 884.311, 378.930 887.117, 375.073 889.615 C 368.549 893.841, 366.826 895.469, 365.139 899 C 364.219 900.925, 362.589 903.808, 361.516 905.406 C 358.564 909.804, 358.625 925.648, 361.609 929.685 C 362.770 931.254, 364.042 933.557, 364.437 934.802 C 365.354 937.692, 369.208 941.857, 372.746 943.781 C 383.343 949.545, 387.279 951, 392.266 950.995 C 396.971 950.991, 407.678 947.664, 409.773 945.555 C 410.173 945.153, 411.907 944.234, 413.627 943.514 C 416.469 942.324, 416.908 941.512, 418.450 934.581 C 419.691 929.003, 419.923 925.555, 419.315 921.729 L 418.484 916.500 406.223 916.219 C 395.538 915.974, 393.879 916.153, 393.321 917.605 C 392.121 920.734, 394.398 922.482, 400.103 922.811 C 406.117 923.157, 410 925.791, 410 929.524 C 410 930.721, 408.647 933.567, 406.994 935.850 L 403.987 940 392.738 940 L 381.488 940 376.448 934.750 C 372.447 930.582, 371.134 928.343, 370.077 923.886 C 367.489 912.974, 372.821 901.443, 382.784 896.404 C 387.352 894.094, 388.911 893.803, 394.284 894.259 C 397.703 894.549, 401.850 895.507, 403.500 896.388 C 410.325 900.031, 417.466 899.170, 416.811 894.784 C 416.640 893.640, 415.825 892.393, 415 892.014 C 414.175 891.634, 412.150 890.587, 410.500 889.687 C 401.089 884.554, 395.255 882.842, 390 883.675 M 464.500 883.674 C 460.250 884.166, 451 887.264, 451 888.194 C 451 888.622, 449.464 889.615, 447.588 890.399 C 440.857 893.211, 436.217 900.486, 433.853 911.931 C 432.883 916.628, 432.900 918.985, 433.938 923.655 C 436.724 936.193, 440.996 941.522, 452.730 947.093 C 464.230 952.553, 468.411 952.421, 481 946.197 C 490.224 941.637, 490.520 941.384, 491.192 937.500 C 491.573 935.300, 491.911 929.803, 491.942 925.285 C 491.990 918.429, 491.711 916.924, 490.250 916.185 C 488.412 915.255, 469.520 915.560, 467.925 916.546 C 466.618 917.354, 466.776 920.376, 468.200 921.800 C 468.860 922.460, 471.753 923, 474.629 923 C 482.747 923, 485.784 927.378, 481.959 933.566 C 478.364 939.383, 475.989 940.364, 465.500 940.364 C 455.422 940.364, 451.707 938.991, 450.060 934.657 C 449.591 933.425, 448.481 931.814, 447.593 931.077 C 445.381 929.241, 441.990 921.326, 442.044 918.123 C 442.161 911.108, 449.312 899.082, 455.186 896.020 C 460.776 893.106, 469.292 893.297, 476.151 896.490 C 479.093 897.860, 482.651 898.985, 484.059 898.990 C 487.469 899.003, 490.303 896.810, 489.858 894.501 C 489.546 892.882, 484.777 889.477, 480 887.463 C 471.478 883.870, 468.689 883.188, 464.500 883.674 M 564 884.900 C 552.559 888.630, 545.512 894.286, 540.961 903.393 C 538.290 908.739, 538 910.270, 538 919.025 C 538 927.216, 538.312 929.127, 540 931.273 C 541.100 932.671, 542 934.451, 542 935.228 C 542 938.067, 547.708 942.712, 556.229 946.806 C 566.583 951.780, 570.965 952.109, 579.578 948.558 C 590.825 943.920, 592.891 942.420, 597.775 935.345 L 602.500 928.500 602.500 917.500 L 602.500 906.500 597.697 899.500 C 594.577 894.953, 591.773 892.030, 589.697 891.158 C 587.939 890.420, 585.825 889.221, 585 888.494 C 583.577 887.240, 571.943 882.939, 570.282 883.054 C 569.852 883.083, 567.025 883.914, 564 884.900 M 797 883.667 C 788.048 885.291, 779.365 890.515, 773.382 897.877 C 769.730 902.371, 769.187 903.730, 768.581 909.873 C 768.206 913.683, 768.213 920.273, 768.598 924.518 C 769.244 931.654, 769.586 932.546, 773.136 936.367 C 775.248 938.640, 776.981 940.793, 776.988 941.151 C 777.031 943.409, 794.803 951, 800.045 951 C 807.643 951, 825 941.611, 825 937.501 C 825 936.126, 821.266 932, 820.022 932 C 819.527 932, 817.042 933.800, 814.500 936 L 809.878 940 800.130 940 L 790.381 940 785.191 934.997 C 780.913 930.874, 780 929.389, 780 926.556 C 780 924.665, 779.498 922.808, 778.885 922.429 C 777.733 921.717, 778.088 916.374, 779.833 908.197 C 782.731 894.613, 804.051 889.428, 815.055 899.631 C 818.356 902.692, 820.543 902.628, 822.652 899.408 C 824.220 897.015, 824.227 896.611, 822.746 894.169 C 820.878 891.091, 808.189 884.343, 803 883.668 C 801.075 883.418, 798.375 883.417, 797 883.667 M 187 885.845 C 179.638 888.609, 175.038 891.972, 173.463 895.743 C 171.723 899.908, 171.552 907.263, 173.125 910.316 C 176.224 916.330, 184.708 920.658, 196.869 922.426 C 202.445 923.237, 208 928.149, 208 932.268 C 208 935.844, 203.948 939.731, 199.316 940.601 C 194.420 941.519, 181.923 940.133, 179.192 938.369 C 175.681 936.101, 171.564 936.942, 171.215 940 C 170.980 942.062, 171.680 942.873, 175.215 944.633 C 188.890 951.441, 196.020 952.561, 203 949 C 205.156 947.900, 207.501 946.986, 208.210 946.968 C 208.920 946.951, 210.635 945.936, 212.023 944.712 C 216.822 940.479, 218 937.875, 218 931.500 C 218 925.773, 217.770 925.193, 213.750 920.792 C 209.682 916.338, 209.179 916.098, 202 915.173 C 192.371 913.932, 187.397 912.012, 184.440 908.396 C 180.987 904.173, 181.313 900.810, 185.535 897.104 C 188.478 894.519, 189.904 894, 194.060 894 C 196.804 894, 201.611 894.900, 204.740 896 C 211.885 898.511, 213.657 898.509, 215.007 895.987 C 216.614 892.984, 210.480 887.740, 202.892 885.630 C 195.704 883.631, 192.790 883.671, 187 885.845 M 246.106 886.289 C 226.959 893.620, 227.754 913.993, 247.418 919.916 C 251.224 921.062, 255.499 922.002, 256.918 922.004 C 262.945 922.012, 270.410 930.496, 268.134 934.750 C 265.516 939.642, 263.245 940.502, 253.042 940.463 C 245.574 940.435, 242.690 940.027, 240.685 938.713 C 237.097 936.362, 233.326 936.523, 231.954 939.086 C 231.340 940.233, 230.999 941.332, 231.195 941.528 C 232.758 943.091, 239.359 947, 240.435 947 C 241.176 947, 243.743 947.890, 246.141 948.978 C 252.038 951.654, 256.880 951.497, 264.263 948.389 C 272.049 945.112, 274.797 942.956, 277.698 937.848 C 280.936 932.148, 280.652 928.970, 276.457 923.949 C 274.508 921.616, 272.503 918.940, 272.001 918.002 C 271.336 916.760, 269.210 916.121, 264.185 915.654 C 260.388 915.301, 255.306 914.131, 252.891 913.055 C 248.314 911.014, 242 905.835, 242 904.121 C 242 896.214, 254.283 891.608, 264.500 895.683 C 266.700 896.561, 270.300 897.328, 272.500 897.389 C 276.069 897.488, 276.532 897.228, 276.795 894.971 C 277.155 891.887, 273.582 888.973, 265.822 886.024 C 259.234 883.520, 253.124 883.602, 246.106 886.289 M 44.750 887.025 C 43.148 888.009, 43 890.572, 43 917.428 L 43 946.757 46.045 948.019 C 48.343 948.971, 49.692 949.006, 51.545 948.161 C 53.846 947.113, 54 946.554, 54 939.244 C 54 927.621, 54.374 927.299, 68.380 926.855 C 77.489 926.565, 80.189 926.139, 81.728 924.746 C 82.789 923.786, 84.078 923, 84.592 923 C 85.106 923, 87.545 920.415, 90.013 917.255 C 93.991 912.162, 94.500 910.932, 94.500 906.413 C 94.500 902.029, 93.990 900.694, 90.853 896.865 C 88.847 894.418, 85.286 891.084, 82.939 889.457 C 78.697 886.516, 78.584 886.498, 62.586 886.225 C 52.386 886.051, 45.860 886.343, 44.750 887.025 M 123.073 888.635 C 121.933 890.084, 121 892.048, 121 893 C 121 893.952, 120.162 895.803, 119.138 897.115 C 118.113 898.427, 116.928 900.625, 116.503 902 C 116.078 903.375, 115.116 905.388, 114.365 906.473 C 113.614 907.557, 113 909.370, 113 910.500 C 113 911.630, 112.304 913.548, 111.454 914.763 C 110.025 916.803, 107.358 923.729, 104.876 931.847 C 104.313 933.688, 102.987 936.613, 101.930 938.347 C 98.586 943.831, 99.822 949, 104.477 949 C 107.933 949, 111 946.186, 111 943.016 C 111 937.823, 114.271 936.400, 127.897 935.668 C 135.066 935.282, 140.972 935.419, 142.516 936.006 C 144.269 936.673, 145.921 938.770, 147.626 942.495 C 149.448 946.474, 150.839 948.172, 152.647 948.626 C 156.010 949.470, 160 947.531, 160 945.052 C 160 942.992, 156.601 935.632, 154.434 933 C 153.755 932.175, 152.732 929.925, 152.161 928 C 149.981 920.652, 147.831 915.596, 146.449 914.568 C 145.660 913.981, 144.628 911.409, 144.156 908.853 C 143.683 906.297, 141.655 901.219, 139.648 897.568 C 137.642 893.918, 136 890.287, 136 889.501 C 136 887.522, 132.800 886, 128.638 886 C 126.056 886, 124.605 886.687, 123.073 888.635 M 314.710 887.250 C 312.688 888.762, 307 900.294, 307 902.881 C 307 903.898, 306.162 905.803, 305.138 907.115 C 304.113 908.427, 302.947 910.625, 302.547 912 C 301.431 915.830, 297.308 926.180, 295.567 929.518 C 294.712 931.158, 294.010 933.064, 294.006 933.754 C 294.003 934.443, 293.100 936.686, 292 938.739 C 288.900 944.523, 289.778 949, 294.013 949 C 295.918 949, 300.504 944.352, 301.413 941.500 C 302.804 937.135, 305.910 936.171, 319.586 935.857 C 326.689 935.693, 333.018 935.883, 333.652 936.278 C 334.285 936.673, 336.427 939.443, 338.413 942.434 C 342.147 948.060, 344.565 949.590, 348 948.500 C 350.397 947.739, 350.765 942.880, 348.564 941.053 C 347.775 940.398, 346.817 938.430, 346.437 936.681 C 346.056 934.931, 345.127 932.612, 344.372 931.527 C 343.618 930.443, 343 928.708, 343 927.672 C 343 926.636, 341.875 924.452, 340.500 922.818 C 339.125 921.184, 338 918.937, 338 917.824 C 338 915.788, 337.115 913.567, 331.864 902.421 C 330.289 899.078, 329 895.694, 329 894.903 C 329 894.112, 327.859 891.785, 326.464 889.732 C 324.288 886.530, 323.392 886, 320.155 886 C 318.080 886, 315.630 886.563, 314.710 887.250 M 511.714 886.696 C 510.048 887.129, 509.935 889.091, 510.045 915.903 C 510.110 931.712, 510.473 945.147, 510.852 945.760 C 511.231 946.373, 512.847 947.372, 514.444 947.979 C 519.753 949.997, 519.881 949.332, 520.271 917.635 C 520.562 894.022, 520.375 888.518, 519.242 887.385 C 517.880 886.023, 515.235 885.781, 511.714 886.696 M 649.280 887.120 C 647.837 888.563, 648.743 945.895, 650.238 947.750 C 651.603 949.445, 655.091 949.325, 657.707 947.492 C 659.654 946.129, 659.836 945.196, 659.614 937.742 C 659.468 932.876, 659.886 928.169, 660.633 926.250 L 661.898 923 672.015 923 C 682.727 923, 686 922.084, 686 919.087 C 686 915.537, 683.479 914.673, 675.147 915.367 C 664.331 916.269, 661.190 915.512, 660.219 911.767 C 659.207 907.859, 660.237 897.363, 661.785 895.815 C 662.622 894.978, 667.577 894.586, 677.749 894.551 L 692.500 894.500 692.824 891.105 C 693.019 889.063, 692.621 887.375, 691.824 886.870 C 689.751 885.556, 650.614 885.786, 649.280 887.120 M 721.750 887.080 C 720.788 887.641, 719.993 889.090, 719.985 890.300 C 719.977 891.510, 719.342 893.625, 718.573 895 C 715.063 901.277, 711.999 908.428, 711.985 910.371 C 711.977 911.542, 711.314 913.625, 710.512 915 C 709.710 916.375, 708.373 918.932, 707.542 920.682 C 706.711 922.432, 705.625 924.113, 705.131 924.419 C 704.636 924.725, 703.920 927.045, 703.541 929.575 C 703.162 932.104, 701.760 936.227, 700.426 938.736 C 697.722 943.821, 697.424 946.024, 699.200 947.800 C 702.287 950.887, 708.032 947.484, 709.383 941.768 C 710.439 937.302, 714.390 936, 726.885 936 C 739.459 936, 742.550 936.844, 744.203 940.730 C 746.832 946.909, 751.805 949.680, 755.759 947.170 C 757.497 946.067, 755.694 936.784, 753.011 933.015 C 751.905 931.462, 751 929.472, 751 928.592 C 751 927.712, 750.100 925.314, 749 923.261 C 747.900 921.209, 747 918.919, 747 918.173 C 747 917.426, 746.100 915.671, 745 914.273 C 743.900 912.874, 743 910.927, 743 909.946 C 743 908.965, 742.342 906.888, 741.539 905.331 C 740.735 903.774, 738.493 899.064, 736.556 894.864 C 734.619 890.663, 732.315 886.951, 731.435 886.614 C 729.005 885.681, 723.714 885.936, 721.750 887.080 M 842.750 887.080 C 841.147 888.014, 841 890.532, 841 917.027 L 841 945.954 843.451 947.560 C 846.444 949.521, 849.475 948.731, 851.640 945.426 C 853.019 943.322, 853.170 939.476, 852.790 916.068 C 852.465 895.976, 852.024 888.733, 851.054 887.566 C 849.587 885.797, 845.375 885.551, 842.750 887.080 M 873.337 887.250 C 872.263 888.968, 872.561 945.961, 873.650 947.050 C 874.131 947.531, 882.507 948.236, 892.263 948.617 C 908.548 949.253, 910.164 949.161, 912 947.500 C 914.392 945.335, 914.627 941.455, 912.418 940.607 C 911.548 940.273, 905.303 940, 898.541 940 C 888.328 940, 886.012 939.720, 884.872 938.348 C 883.810 937.069, 883.441 931.251, 883.239 912.598 C 883.095 899.344, 882.771 887.938, 882.520 887.250 C 882.259 886.537, 880.358 886, 878.090 886 C 875.906 886, 873.766 886.563, 873.337 887.250 M 928.942 888.058 C 926.948 890.052, 926.893 890.979, 927.192 917.532 C 927.483 943.401, 927.613 945.059, 929.500 946.924 C 931.344 948.747, 933.065 948.916, 951.616 949.092 C 962.680 949.198, 972.242 948.968, 972.866 948.583 C 974.767 947.408, 974.213 942.184, 972.066 941.035 C 970.996 940.463, 963.867 940, 956.122 940 C 942.780 940, 942.039 939.894, 940.557 937.777 C 938.637 935.037, 938.414 924.497, 940.250 923.309 C 940.938 922.864, 946.900 922.275, 953.500 922 C 965.190 921.513, 965.509 921.439, 965.835 919.135 C 966.019 917.834, 965.691 916.291, 965.107 915.707 C 964.513 915.113, 959.352 914.573, 953.397 914.482 C 943.420 914.330, 942.634 914.169, 940.897 911.910 C 939.652 910.290, 939.037 907.802, 939.022 904.323 C 939.003 899.906, 939.387 898.840, 941.635 897.073 C 944.009 895.205, 945.624 895, 957.935 895 C 967.230 895, 971.984 894.616, 972.800 893.800 C 974.538 892.062, 974.287 887.324, 972.418 886.607 C 971.548 886.273, 961.873 886, 950.918 886 C 932.145 886, 930.882 886.118, 928.942 888.058 M 59.030 895.268 C 54.839 897.408, 53.635 900.764, 54.422 908.113 C 55.039 913.875, 55.454 914.837, 57.965 916.320 C 61.474 918.393, 66.170 918.451, 73.607 916.514 C 80.957 914.600, 83 912.725, 83 907.892 C 83 902.489, 81.146 899.111, 77.053 897.055 C 72.227 894.630, 62.220 893.638, 59.030 895.268 M 562.819 895.531 C 559.336 896.639, 556.973 898.383, 553.591 902.342 C 549.411 907.234, 548.994 908.219, 548.409 914.581 C 547.565 923.768, 548.969 928.378, 554.554 934.750 L 559.155 940 569.359 940 L 579.563 940 585.531 933.965 L 591.500 927.931 591.479 916.831 L 591.458 905.730 586.979 901.808 C 584.516 899.651, 581.333 897.262, 579.906 896.498 C 575.795 894.298, 568.069 893.861, 562.819 895.531 M 315.633 905.025 C 313.939 907.038, 313 909.345, 313 911.495 C 313 913.332, 311.855 917.115, 310.456 919.901 C 308.410 923.974, 308.127 925.369, 309.010 927.019 C 310.018 928.903, 310.894 929.048, 319.698 928.786 C 331.556 928.432, 332.529 927.550, 329.014 920.341 C 325.777 913.703, 325.171 912.182, 323.699 907 C 322.062 901.240, 319.372 900.581, 315.633 905.025 M 126.407 904.744 C 124.619 905.981, 120.386 915.208, 119.721 919.320 C 119.381 921.421, 119.503 924.193, 119.992 925.479 C 120.776 927.541, 121.761 927.901, 128.310 928.514 C 141.491 929.750, 142.703 926.881, 135.241 912.099 C 131.491 904.668, 129.234 902.790, 126.407 904.744 M 726.312 905.076 C 724.950 905.582, 723.742 907.276, 723.110 909.563 C 722.552 911.583, 721.425 913.977, 720.606 914.883 C 718.880 916.791, 716.916 924.618, 717.671 926.585 C 718.408 928.506, 721.392 929.224, 728.243 929.127 C 736.310 929.014, 737.277 928.068, 736.412 921.145 C 735.640 914.964, 731.847 905.537, 729.822 904.766 C 729.095 904.489, 727.516 904.629, 726.312 905.076" stroke="none" fill="#0B1F3A" fill-rule="evenodd"/>
</svg>